<?xml version="1.0" standalone="no"?>
<!DOCTYPE svg PUBLIC "-//W3C//DTD SVG 20010904//EN"
 "http://www.w3.org/TR/2001/REC-SVG-20010904/DTD/svg10.dtd">
<svg version="1.0" xmlns="http://www.w3.org/2000/svg"
 width="1053.000000pt" height="120.000000pt" viewBox="0 0 1053.000000 120.000000"
 preserveAspectRatio="xMidYMid meet">
<metadata>
Created by potrace 1.16, written by Peter Selinger 2001-2019
</metadata>
<g transform="translate(0.000000,120.000000) scale(0.100000,-0.100000)"
fill="#1877F2" stroke="none">
<path d="M1184 1086 c-3 -7 -4 -35 -2 -62 l3 -49 65 0 65 0 3 44 c4 60 -16 81
-80 81 -32 0 -50 -5 -54 -14z"/>
<path d="M1717 1082 c-40 -44 -8 -112 53 -112 62 0 95 74 52 113 -25 23 -85
22 -105 -1z"/>
<path d="M4097 724 c-4 -4 -7 -29 -7 -56 l0 -48 111 0 110 0 -3 53 -3 52 -101
3 c-55 1 -103 0 -107 -4z m203 -49 l0 -45 -100 0 -100 0 0 45 0 45 100 0 100
0 0 -45z"/>
<path d="M5924 707 c-3 -8 -4 -36 -2 -63 3 -42 6 -49 25 -52 17 -3 23 -11 25
-40 l3 -37 75 0 75 0 0 60 c0 54 -2 60 -22 63 -17 3 -23 11 -25 40 l-3 37 -73
3 c-55 2 -74 0 -78 -11z m146 -37 c0 -36 3 -40 25 -40 24 0 25 -3 25 -55 l0
-55 -70 0 -70 0 0 40 c0 36 -2 40 -25 40 -24 0 -25 3 -25 55 l0 55 70 0 70 0
0 -40z"/>
<path d="M7564 697 c-3 -8 -4 -49 -2 -93 l3 -79 75 -2 c41 0 67 1 58 4 -15 4
-18 17 -18 89 l0 84 50 0 49 0 4 -55 4 -55 -1 57 -1 58 -108 3 c-84 2 -109 0
-113 -11z m106 -82 l0 -85 -50 0 -50 0 0 85 0 85 50 0 50 0 0 -85z"/>
</g>
</svg>
